<svg xmlns="http://www.w3.org/2000/svg" xmlns:xlink="http://www.w3.org/1999/xlink" version="1.1" id="layer" x="0px" y="0px" viewBox="0 0 652 530" style="enable-background:new 0 0 652 652;" xml:space="preserve">
<style type="text/css">
	.st0{fill:#FFFFFF;}
	.st1{fill:none;stroke:#231815;stroke-width:16.0273;}
	.st2{fill:#231815;}
</style>
<polyline class="st0" points="-7.9,263.7 319.7,72.6 648,262.2 320.5,455.2 -7.9,263.7 "/>
<polygon class="st1" points="-7.9,263.7 319.7,72.6 648,262.2 320.5,455.2 "/>
<polygon class="st1" points="-7.9,262.9 320.1,72.6 648,262.9 320.1,455.2 "/>


<path class="st2" d="M388.5,291.5l156.7-8.6v-7.2L388.5,275v-81.4c0,0,0-2.8-0.1-6c0-1.9,0.1-4.3,0.1-7.2  c0.3-55.1-47.2-51.7-48-51.6c-0.8-0.1-48.3-3.5-48,51.6c0,2.9,0,5.3,0.1,7.2c0,3.2-0.1,6-0.1,6v81.1l-10.4,0l-17.5,23.7l27.9-1.5  V322c0,0,0,8,0,13.7c-0.1,31.3-25.1,29.3-25.7,29.2h0h0c-0.7,0.1-26,2.1-26.1-29.2c0-5.7,0-13.7,0-13.7V218.5c0,0,0-2.8-0.1-6  c0-1.9,0.1-7.5,0.1-10.4c-0.7-48.6-57.2-31-57.2-31s34.8-1.1,34.9,30.7c0,4.1,0.1,12.7,0.2,15.4c0,0.8,0,1.3,0,1.3V322  c0,0,0.1,3.8,0,13.2c-0.3,55.4,47.8,52,48.2,52c0.3,0,48.3,3.4,48-52c-0.1-9.3,0-13.2,0-13.2v-26.4l51.8-2.9v43.7l-0.1,0  c0,1.9-0.1,7.5-0.1,10.4c0.7,48.6,57.2,31,57.2,31s-34.8,1.1-34.9-30.7c0-2.3,0-5.9-0.1-9.2h0V291.5 M314.6,274.7v-81.1  c0,0,0-0.5,0-1.3c0-2.7,0.2-8.1,0.2-12.2c0.1-31.7,25.9-29.3,25.9-29.3s25.5-2.5,25.5,29.3c0,4.1,0.1,9.5,0.2,12.2  c0,0.8,0,1.3,0,1.3v81.3L314.6,274.7z"/>
<rect x="466.8" y="229.4" class="st2" width="3.4" height="30.7"/>
<path class="st2" d="M493,229.4h3.4v30.7h-5.6l-8.6-24.6c-0.5-1.4-0.8-2.8-1.1-4.6H481c0.1,1.6,0.1,3.2,0.1,4.7v24.5h-3.4v-30.7h5.5  l8.7,25.1c0.3,0.9,0.6,1.9,1,3.4h0.1c0-1.1-0.1-2.3-0.1-3.4V229.4"/>
<path class="st2" d="M517.2,238.7c-0.1-3.6-1.3-6.8-5.5-6.8c-5.9,0-6,8.4-6,12.5c-0.2,4.2-0.3,13.5,6,13.5c4,0,4.9-3.3,5.3-6.7  c0.1-0.7,0.1-1.4,0.2-2.1h3.4c-0.1,0.6-0.1,1.3-0.2,1.9c-0.2,2.5-0.4,4.4-1.8,6.5c-1.6,2.2-3.7,3.4-6.7,3.4c-9.4,0-9.8-9.1-9.8-16.5  c0-6.9,1-15.6,9.8-15.6c5.8,0,8.8,4.3,8.7,9.8H517.2"/>
<rect x="526.4" y="256" class="st2" width="3.7" height="4.1"/>
</svg>